<svg display='block' xmlns="http://www.w3.org/2000/svg">
  <!-- <defs> -->
    <symbol id='GITHUB' viewBox="0 0 512 512">
    <path d="M218.7,445.5c-6.6,0.7-12.2,1.4-17.8,2c-29.1,2.9-54.5-5-73.7-27.7c-6-7.1-9.4-16.3-14.5-24.2c-7.9-12.4-16-24.7-24.7-36.6   c-3-4.1-8.2-6.5-12.2-10c-1.3-1.1-1.7-3.2-2.6-4.9c1.8-0.7,3.5-1.9,5.3-2.1c23-2.1,39.2,8.5,50.5,27.6   c14.1,23.8,34.5,36.8,62.2,36.8c8,0,16-2.7,23.9-4.5c1.5-0.4,3.3-2.7,3.5-4.4c1.4-10.4,2.7-20.8,7.5-30.3c1.8-3.5,3.9-6.8,6-10.4   c-8.1-1.6-15.9-2.8-23.6-4.7c-35.5-9-64.8-26.8-81.8-60.6c-6.6-13.2-10.3-27.4-10.8-42.2c-0.8-22.8-0.5-45.7,4.1-68.2   c3.3-15.8,9.3-30.5,21.3-41.9c2.6-2.5,3.1-4.7,1.7-8.5c-6.7-18.7-7.4-37.7-1.7-56.8c1.2-4.1,2.3-8.2,3.5-12.5   c27.4,5.2,43.7,23.7,59,44.2c15.8-11.7,34.5-12.7,52.7-13.9c21.6-1.4,43.3-1.1,64.8,2.4c11.2,1.8,18.1,4.1,29,10.6   c9.4-9.7,18.2-19.5,27.9-28.4c7.7-7.1,17.3-11.6,27.7-14c2.9-0.7,4.4-0.4,5.6,2.8c8.1,22.1,9.3,44.1,0.4,66.2   c-1.2,3-1.1,5.1,1.4,7.5c14.4,13.7,21,31.4,23.2,50.5c2,17.7,3.1,35.5,3.1,53.3c0,25.3-7.5,48.5-23.4,68.4   c-11.2,14.1-25.7,24.2-42.1,31.8c-15.9,7.3-32.5,11.5-49.7,13.7c-0.4,0.1-0.8,0.4-1.5,0.7c11.8,16.9,13.7,35.9,13.5,55.6   c-0.3,28.7-0.2,57.3,0,86c0,4.5-1.3,5.6-5.7,5.6c-35.5-0.2-71-0.2-106.5,0c-4.4,0-5.8-1.4-5.8-5.7c0.2-15.5,0.1-31,0.1-46.5   C218.7,449.9,218.7,447.9,218.7,445.5z"/>
    </symbol>

    <symbol id='telegram' viewBox="">
    <path d="M470.4354553,45.4225006L16.8273029,221.2490387c-18.253809,8.1874695-24.4278889,24.5854034-4.4127407,33.4840851l116.3710175,37.1726685l281.3674316-174.789505c15.3625488-10.9733887,31.0910339-8.0470886,17.5573425,4.023468L186.0532227,341.074646l-7.5913849,93.0762329c7.0313721,14.3716125,19.9055786,14.4378967,28.1172485,7.2952881l66.8582916-63.5891418l114.5050659,86.1867065c26.5942688,15.8265076,41.0652466,5.6130371,46.7870789-23.3935242L509.835083,83.1804428C517.6329956,47.474514,504.3345032,31.7425518,470.4354553,45.4225006z"/>
    </symbol>

    <symbol id='discord' viewBox="0 0 640 512">
    <path d="M524.531,69.836a1.5,1.5,0,0,0-.764-.7A485.065,485.065,0,0,0,404.081,32.03a1.816,1.816,0,0,0-1.923.91,337.461,337.461,0,0,0-14.9,30.6,447.848,447.848,0,0,0-134.426,0,309.541,309.541,0,0,0-15.135-30.6,1.89,1.89,0,0,0-1.924-.91A483.689,483.689,0,0,0,116.085,69.137a1.712,1.712,0,0,0-.788.676C39.068,183.651,18.186,294.69,28.43,404.354a2.016,2.016,0,0,0,.765,1.375A487.666,487.666,0,0,0,176.02,479.918a1.9,1.9,0,0,0,2.063-.676A348.2,348.2,0,0,0,208.12,430.4a1.86,1.86,0,0,0-1.019-2.588,321.173,321.173,0,0,1-45.868-21.853,1.885,1.885,0,0,1-.185-3.126c3.082-2.309,6.166-4.711,9.109-7.137a1.819,1.819,0,0,1,1.9-.256c96.229,43.917,200.41,43.917,295.5,0a1.812,1.812,0,0,1,1.924.233c2.944,2.426,6.027,4.851,9.132,7.16a1.884,1.884,0,0,1-.162,3.126,301.407,301.407,0,0,1-45.89,21.83,1.875,1.875,0,0,0-1,2.611,391.055,391.055,0,0,0,30.014,48.815,1.864,1.864,0,0,0,2.063.7A486.048,486.048,0,0,0,610.7,405.729a1.882,1.882,0,0,0,.765-1.352C623.729,277.594,590.933,167.465,524.531,69.836ZM222.491,337.58c-28.972,0-52.844-26.587-52.844-59.239S193.056,219.1,222.491,219.1c29.665,0,53.306,26.82,52.843,59.239C275.334,310.993,251.924,337.58,222.491,337.58Zm195.38,0c-28.971,0-52.843-26.587-52.843-59.239S388.437,219.1,417.871,219.1c29.667,0,53.307,26.82,52.844,59.239C470.715,310.993,447.538,337.58,417.871,337.58Z"/>
    </symbol>

    <symbol id='mail_emal' viewBox="0 0 64 64">
    <path d="M63.125,9.977c-0.902-1.321-2.419-2.194-4.131-2.194H5.006c-1.676,0-3.158,0.842-4.067,2.117l31.16,25.982L63.125,9.977z"/><path d="M0.006,14.328v36.889c0,2.75,2.25,5,5,5h53.988c2.75,0,5-2.25,5-5V14.461L32.099,41.09L0.006,14.328z"/>
    </symbol>  
  <!-- </defs> -->
</svg>